<svg xmlns="http://www.w3.org/2000/svg" width="19.508" height="17.472" viewBox="0 0 19.508 17.472">
  <path id="np_tick_7996563_000000" d="M21.844,7.945a1.051,1.051,0,0,0-1.451-.325,38.165,38.165,0,0,0-4.021,2.914A37.162,37.162,0,0,0,9.7,17.943c-.44.625-.866,1.252-1.285,1.875Q6.4,17.448,4.354,15.1a1.057,1.057,0,0,0-1.707,1.226c1.483,2.548,2.945,5.121,4.381,7.7a1.8,1.8,0,0,0,3.124.013c.829-1.454,1.588-2.892,2.386-4.266A34.14,34.14,0,0,1,18.073,12.4a35.812,35.812,0,0,1,3.508-3.047,1.052,1.052,0,0,0,.262-1.408Z" transform="translate(-2.499 -7.457)"/>
</svg>
