<svg xmlns="http://www.w3.org/2000/svg" xmlns:xlink="http://www.w3.org/1999/xlink" width="36.337" height="44.251" viewBox="0 0 36.337 44.251">
  <defs>
    <clipPath id="clip-path">
      <rect id="Rectangle_63" data-name="Rectangle 63" width="36.337" height="44.251" fill="#e36226"/>
    </clipPath>
  </defs>
  <g id="Group_104" data-name="Group 104" transform="translate(0 0)">
    <g id="Group_79" data-name="Group 79" transform="translate(0 0)" clip-path="url(#clip-path)">
      <path id="Path_46" data-name="Path 46" d="M20.311,5.871V8.209a17.978,17.978,0,0,1,16,16.6c.828,15.178-16.124,24.985-28.653,16.027A18.173,18.173,0,0,1,4.582,13.96L3.617,12.9c-.68.541-1.017.472-1.592-.109-.639-.645-1.153-1.232-.513-2.1A22.941,22.941,0,0,1,4.475,8.319a1.05,1.05,0,0,1,1.481.168,8.565,8.565,0,0,1,.752,1.025c.249.766-.553,1.028-.512,1.254l.866.987a18.057,18.057,0,0,1,8.947-3.639V5.871h-2.2c-.521,0-1.265-.824-1.386-1.327a13.6,13.6,0,0,1-.064-2.836,1.833,1.833,0,0,1,1.82-1.64c2.641-.2,5.605.1,8.264.068a1.869,1.869,0,0,1,1.3,1.408,16.161,16.161,0,0,1,.014,2.869c-.075.547-.78,1.458-1.348,1.458ZM33.13,26.053A14.974,14.974,0,1,0,18.155,41.027,14.974,14.974,0,0,0,33.13,26.053" transform="translate(0 0)" fill="#e36226"/>
      <path id="Path_47" data-name="Path 47" d="M178.312,187.827a.971.971,0,0,1,1.011,1.481l-5.806,5.984a2.88,2.88,0,0,1-1.29,3.194,2.55,2.55,0,1,1-.16-4.643l5.8-5.806a.909.909,0,0,1,.448-.21" transform="translate(-152.787 -170.245)" fill="#e36226"/>
      <path id="Path_48" data-name="Path 48" d="M184.383,141.62a.92.92,0,0,1,1.235.783,13.842,13.842,0,0,1-.013,2.5.946.946,0,0,1-1.844.016,16.591,16.591,0,0,1,.014-2.687.954.954,0,0,1,.608-.608" transform="translate(-166.531 -128.34)" fill="#e36226"/>
      <path id="Path_49" data-name="Path 49" d="M184.358,374.609a.892.892,0,0,1,1.14.5,9.928,9.928,0,0,1,.081,2.681.951.951,0,0,1-1.844.016,14.634,14.634,0,0,1,0-2.42.978.978,0,0,1,.622-.781" transform="translate(-166.506 -339.537)" fill="#e36226"/>
      <path id="Path_50" data-name="Path 50" d="M294.925,267.533a10.308,10.308,0,0,1,2.433.049.956.956,0,0,1-.309,1.794,7.81,7.81,0,0,1-2.311-.109.921.921,0,0,1,.187-1.734" transform="translate(-266.689 -242.468)" fill="#e36226"/>
      <path id="Path_51" data-name="Path 51" d="M55.925,267.517a8.307,8.307,0,0,1,2.482.093.946.946,0,0,1,.1,1.556,5.35,5.35,0,0,1-2.772.085.921.921,0,0,1,.187-1.734" transform="translate(-50.042 -242.452)" fill="#e36226"/>
    </g>
  </g>
</svg>
