<svg xmlns="http://www.w3.org/2000/svg" xmlns:xlink="http://www.w3.org/1999/xlink" width="23.07" height="33.235" viewBox="0 0 23.07 33.235">
  <defs>
    <clipPath id="clip-path">
      <rect id="Rectangle_64" data-name="Rectangle 64" width="23.07" height="33.235" fill="#e36226"/>
    </clipPath>
  </defs>
  <g id="Group_81" data-name="Group 81" clip-path="url(#clip-path)">
    <path id="Path_52" data-name="Path 52" d="M4.247,14.675c-.848-2.718-1.066-6.344.094-8.993,3.4-7.761,15.217-7.531,18.2.442.5,1.344-.016,1.421-1.148,1.809a27.2,27.2,0,0,1-3.084.952c-.807.129-.921-1.1-1.219-1.668-2-3.842-7.636-2.482-7.991,1.743a20.224,20.224,0,0,0,.75,5.7l5.542.009c.51.06.656.393.7.862a20.62,20.62,0,0,1-.008,3.123c-.032.2-.354.621-.53.621H10.5a10.693,10.693,0,0,1-1.775,6.49c-.126.212-.834,1.082-.692,1.24a7.991,7.991,0,0,1,5.1-.124c2.095.453,3.321,1.062,5.573.476.456-.119,2.231-.943,2.426-.913a.629.629,0,0,1,.4.339,24.742,24.742,0,0,1,1.3,3.3c.3.921.464.983-.44,1.537a10.588,10.588,0,0,1-8.607.932c-3.5-.974-4.766-1.777-8.535-.558-.558.181-2.716,1.246-3.006,1.233a.638.638,0,0,1-.295-.105A20.132,20.132,0,0,1,.561,30c-.154-.362-.572-.907-.494-1.282.091-.439,1.333-1.168,1.714-1.5A9.6,9.6,0,0,0,5.07,19.28H.67a1.631,1.631,0,0,1-.443-.3,1.484,1.484,0,0,1-.177-.645A18.85,18.85,0,0,1,.06,15.463c.031-.233.268-.788.527-.788Z" transform="translate(0 0)" fill="#e36226"/>
  </g>
</svg>
