<svg xmlns="http://www.w3.org/2000/svg" width="80.119" height="74.024" viewBox="0 0 80.119 74.024">
  <g id="Group_218" data-name="Group 218" transform="translate(-1023.94 -296.434)">
    <g id="np_bottle_1408460_000000" transform="translate(990.175 282.032)">
      <path id="Path_107" data-name="Path 107" d="M50.575,22.312a16.689,16.689,0,0,1,16.7,16.572V39.5H34v-.613A16.66,16.66,0,0,1,50.576,22.312Z" transform="translate(0.009 0.315)" fill-rule="evenodd"/>
      <path id="Path_108" data-name="Path 108" d="M44.629,14.4H55.811V19.69H44.629Z" transform="translate(0.432)" fill-rule="evenodd"/>
      <path id="Path_109" data-name="Path 109" d="M40.829,41.793h19.52a6.065,6.065,0,0,1,5.646,5.646V56.4a5.644,5.644,0,0,1-5.646,5.646H40.829A6.065,6.065,0,0,1,35.183,56.4v-8.96a5.644,5.644,0,0,1,5.646-5.646Z" transform="translate(0.056 1.089)" fill-rule="evenodd"/>
      <path id="Path_110" data-name="Path 110" d="M39.9,64.227H61.384c3.391,0,6.137,3.391,6.137,6.137v9.943a6.137,6.137,0,0,1-6.137,6.137H39.9c-3.391,0-6.137-3.391-6.137-6.137V70.364A6.137,6.137,0,0,1,39.9,64.227Z" transform="translate(0 1.982)" fill-rule="evenodd"/>
    </g>
    <g id="np_apple_4536633_000000" transform="translate(1044.411 308.587)">
      <path id="Path_111" data-name="Path 111" d="M30.46,69.078c2.1.187,3.429-1.122,7.993-1.122s5.894,1.309,7.993,1.122c8.351-.745,18.31-24.186,10.187-33.471-.461-.524-3.728-4.448-8.6-4.967-3.617-.382-4.506,1.484-9.227,1.53-4.914.051-5.952-1.953-9.751-1.57-5,.507-8.351,4.546-8.792,5-7.56,7.94,1.6,32.709,10.195,33.474Z" transform="translate(0 -7.226)"/>
      <path id="Path_112" data-name="Path 112" d="M41.691,24.057a12.7,12.7,0,0,0,2.452.279c-.337-.486-.674-.973-1.011-1.466l1.808-2.495c1.712.312,6.089.818,9.389-1.375,4.194-2.781,6.484-8.072,6.484-8.072s-7.361-2.353-11.555.436c-3.321,2.2-4.546,6.451-4.921,8.138l-1.816,2.51c-1.965-2.789-4.073-5.446-6.925-6.846l-1.3,2.718a19.812,19.812,0,0,1,7.39,6.175Z" transform="translate(-5.923)"/>
    </g>
  </g>
</svg>
