<svg xmlns="http://www.w3.org/2000/svg" width="61.511" height="60.31" viewBox="0 0 61.511 60.31">
  <g id="np_rucksack_1927820_000000" transform="translate(0 0)">
    <path id="Path_96" data-name="Path 96" d="M92.089,65.612V79.386a4.509,4.509,0,0,1-4.547,4.547H84.2V61.2h3.343a4.4,4.4,0,0,1,4.547,4.411Z" transform="translate(-30.578 -23.623)"/>
    <path id="Path_97" data-name="Path 97" d="M8.547,61h3.21V83.732H8.547A4.482,4.482,0,0,1,4,79.318V65.547A4.594,4.594,0,0,1,8.547,61Z" transform="translate(-4 -23.558)"/>
    <path id="Path_98" data-name="Path 98" d="M19.6,61h.133V83.732H19.6Z" transform="translate(-9.171 -23.558)"/>
    <path id="Path_99" data-name="Path 99" d="M43.941,45.232c17.384-11.1,16.312-10.3,16.715-10.831ZM18.4,34.4c.266.4-.4-.266,16.179,10.565V44.83ZM44.075,48.307v2.139a3.372,3.372,0,0,1-3.21,3.343H37.522a3.31,3.31,0,0,1-3.343-3.343V47.9L19.2,38.144V74.917H59.855l0-36.773Zm9.36,15.511a1.056,1.056,0,0,1-1.071,1.071H26.023a1.056,1.056,0,0,1-1.071-1.071v-.4a1.056,1.056,0,0,1,1.071-1.071H52.231A1.056,1.056,0,0,1,53.3,63.415v.4Z" transform="translate(-8.772 -14.743)"/>
    <path id="Path_100" data-name="Path 100" d="M44.473,50.162V52.3a3.372,3.372,0,0,1-3.21,3.343H37.92A3.31,3.31,0,0,1,34.577,52.3V49.76L19.6,40V76.772H60.254l0-36.773Zm9.36,15.511a1.056,1.056,0,0,1-1.071,1.071H26.421a1.056,1.056,0,0,1-1.071-1.071v-.4A1.056,1.056,0,0,1,26.421,64.2H52.63A1.056,1.056,0,0,1,53.7,65.27v.4Z" transform="translate(-9.171 -16.599)"/>
    <path id="Path_101" data-name="Path 101" d="M68.155,7.674v3.343c-2.541-.669-4.278-.4-7.757-.535V7.674C60.4,6.47,61.333,5,62.537,5h3.609c1.207,0,2.142,1.6,2.008,2.674Z" transform="translate(-22.69 -5)"/>
    <path id="Path_102" data-name="Path 102" d="M35.553,7.674v2.808c-3.476.133-5.216-.266-7.757.535V7.674C27.8,6.47,28.731,5,29.8,5h3.609c1.207,0,2.142,1.6,2.142,2.674Z" transform="translate(-11.886 -5)"/>
    <path id="Path_103" data-name="Path 103" d="M19.2,38.144l14.975,9.763v-.133Zm24.738,7.088c17.384-11.1,16.312-10.3,16.715-10.831ZM18.4,34.4c.266.4-.4-.266,16.179,10.565V44.83ZM44.075,48.307,59.718,38.278v-.133Z" transform="translate(-8.772 -14.743)"/>
    <path id="Path_104" data-name="Path 104" d="M43.941,45.232c17.384-11.1,16.312-10.3,16.715-10.831ZM18.4,34.4c.266.4-.4-.266,16.179,10.565V44.83Z" transform="translate(-8.772 -14.743)"/>
    <path id="Path_105" data-name="Path 105" d="M60.382,28.7,43.667,39.529A3.356,3.356,0,0,0,40.59,37.39H37.247a3.317,3.317,0,0,0-2.941,1.739L18.124,28.7c-2.006-2.272,1.47-11.5,9.763-11.5h22.6c8.289,0,11.766,9.227,9.9,11.5Z" transform="translate(-8.497 -9.043)"/>
    <path id="Path_106" data-name="Path 106" d="M50.547,52.116v3.878a.61.61,0,0,1-.535.669H46.669A.631.631,0,0,1,46,55.995V52.116a.576.576,0,0,1,.535-.535l3.476,0c.266-.136.535.133.535.533Z" transform="translate(-17.919 -20.426)"/>
  </g>
</svg>
