<svg xmlns="http://www.w3.org/2000/svg" xmlns:xlink="http://www.w3.org/1999/xlink" width="208.632" height="208.632" viewBox="0 0 208.632 208.632">
  <defs>
    <clipPath id="clip-path">
      <rect id="Rectangle_52" data-name="Rectangle 52" width="208.632" height="208.632" fill="#e46226"/>
    </clipPath>
  </defs>
  <g id="Group_215" data-name="Group 215" transform="translate(-965.379 -1327.396)">
    <g id="Group_47" data-name="Group 47" transform="translate(965.379 1327.396)">
      <g id="Group_46" data-name="Group 46" transform="translate(0 0)" clip-path="url(#clip-path)">
        <path id="Path_43" data-name="Path 43" d="M208.633,104.316A104.316,104.316,0,1,1,104.316,0,104.316,104.316,0,0,1,208.633,104.316m-40.093,66.1c26.605-26.76,34.942-69.483,19.633-104.193C160.393,3.242,74.9-7.411,32.342,46.654-1.076,89.113,9.236,152.909,54.493,182.079c3.153-6.419,5.035-13.6,8.883-19.7,3.093-4.9,7.964-8.225,11.152-13.046-.158-6.454,3.72-14.165,3.821-20.28.063-3.8-3.14-10.107-1.667-14.866-5.41,1.315-12.685,1.414-16.018-3.809-.811-1.27-1.209-3.54-1.807-4.243-1.026-1.205-4.1-1.209-6-4.083-3.267-4.944-.731-18.289.616-24.188,1.043-4.57,2.4-11.084,7.752-12.085-.007-2-2-1.9-1.987-4.258.02-4.723,4.132-14.044,8.531-16.414,7.5-4.039,22.243-.647,24.352,8.964,3.765.52,4.44-3.32,6.378-4.46,2-1.176,3.751.316,3.522-3.792-.09-1.609-2.088-4.95-2.668-7.067-4.429-16.167,9.619-22.418,23.04-16.318,1.5.682,4.514,2.395,4.74,4.072.264,1.96-1.137,2.68-1.344,4.025-.575,3.716-.161,7.909,1.983,11.049l-2.666.735c-.054,2.37-.15,7.864-1.19,9.872-1.279,2.47-5.759,1.98-8.133,2.277l-.812,2.179c8.208,7.249,8.677,18.415,9.094,28.65,1.357,2.247,18.967,4.392,20.86,2.687,1.565-1.41,1.1-5.188,5.7-4.047l.632-3.739c1.814-.436,5.606-.868,6.848.678.646.8-.278,1.952.225,3.03.477,1.02,2.007,1.254,2.367,3.076.377,1.91-1.393,8.672-2.369,10.37-.943,1.641-3.473,1.678-3.681,2.517l-10.068,87.58a87.322,87.322,0,0,0,23.962-17.033M149.284,99.4l-6.3.094-.421,1.914c-8.1.721-16.232,1.422-24.195-.664a37.264,37.264,0,0,1-3.217,16.581c-.11,1.29,5.209,9,6.253,10.96,2.376,4.459,9.474,17.21,10.246,21.346.583,3.127-.113,6.717.165,9.918.778,8.965,2.024,17.94,2.277,26.937l4.779,2.976Zm-48.72,42.342c-3.927,5.736-5.953,12.642-9.875,18.373-3.807,5.564-9.767,10.774-13.983,16.265-7.419,9.663-12.41,13.525,2.529,17.6a90.681,90.681,0,0,0,39.509,1.586c1.466-14.65-8.795-27.363-5.452-42.429Z" fill="#e46226"/>
      </g>
    </g>
  </g>
</svg>
