<svg xmlns="http://www.w3.org/2000/svg" xmlns:xlink="http://www.w3.org/1999/xlink" width="220.392" height="220.392" viewBox="0 0 220.392 220.392">
  <defs>
    <clipPath id="clip-path">
      <rect id="Rectangle_53" data-name="Rectangle 53" width="220.392" height="220.392" fill="#e46226"/>
    </clipPath>
  </defs>
  <g id="Group_49" data-name="Group 49" transform="translate(0)">
    <g id="Group_48" data-name="Group 48" transform="translate(0 0)" clip-path="url(#clip-path)">
      <path id="Path_44" data-name="Path 44" d="M220.393,110.2A110.2,110.2,0,1,1,110.2,0a110.2,110.2,0,0,1,110.2,110.2m-66.666,87.939c45.695-25.21,66.2-79.7,44.746-128.41C173.309,12.585,99.96-6.506,50.557,32.674-2.079,74.418,2.4,153.808,56.511,191.728c5.945-5.142,7.234-12.542,11.187-18.743,2.963-4.648,9.751-10.136,11.616-14.727,1.388-3.417,5.739-19.15,6-22.517.274-3.54-1.742-6.866.056-10.222-6.244.665-15.189,2.613-19.965-2.466-1.237-1.314-1.628-3.084-2.3-3.761-1.034-1.048-4.231-1.9-5.9-3.715-6.773-7.391.345-26.01,9.641-29.583-2.105-.669-4.307-.371-4.141-3.358.294-5.268,4.742-14.206,9.174-17.241,4.487-3.072,14.862-3.6,20.061-2.352,1.4.337,3.334,2.036,4.353,1.835.63-.125,2.076-1.853,3.268-2.418,4.67-2.212,8.709-1.2,8.249-8.13-2.685-1.435-6.461-9.654-8.576-10.017-7.518-1.288,2.4,9.731-4.112,13-4.372,2.192-17.176,2.749-21.154-.5-1.8-1.471,2.1-1.991,3.084-2.617,6.518-4.148,4.137-6.781,7.595-11.628,1.559-2.184,5.772-4.955,8.285-5.955,1.855-.739,6.866-1.405,7.247-1.652.211-.137,1.425-3.407,2.275-4.491,5.587-7.128,15.718-7.113,22.733-2.092,3.472,2.486,3.741,6.127,7.864,7.786-1.113,1.212-2.655,1.317-3.373,3.019-2.093,4.97,2.671,5.256,1.96,7.642L128.8,47.932c.756,8.752-2.567,13.762-12.1,10.654-1.709,6.121,2.135,6.653,5.144,10.873,4.317,6.055,8.929,16.626,6.954,24.009.82.763,20.325,1.154,22.284.572,1.843-.548,3.668-4.723,6.831-4.2l-.331-4.941c1.472-1.078,6.174-1.544,7.243,0-1.307,5.274.4,3.469,1.761,5.287,1.531,2.039.15,9.649-.933,12.01-.913,1.991-3.1,1.727-3.376,3.745Zm2.844-92.56-6.677.105-.446,2.028c-8.921.481-18.367,2.013-27.049-.706.152,6.629-3.437,11.822-.629,18.066,3.9,8.66,13.422,22.143,15.809,30.469,1.908,6.656,1.657,17.727,2.7,25.064.851,5.972.972,15.41,7.412,17.513Zm-49.143,41.3-1.469.442c-4.435,6.259-7.536,15.338-12.046,21.267-5.594,7.354-15.57,14.376-21.267,22.162-1.834,2.92-.268,9.879,2.554,11.5,8.91,5.133,25.47,5.1,35.445,6.561l20.287-2.14c-.525-2.523.664-5.59.4-7.859-.633-5.484-6.853-14.1-8.06-20.428-.889-4.658-.571-10.57-1.027-15.349Z" transform="translate(0 0)" fill="#e46226"/>
    </g>
  </g>
</svg>
