<svg xmlns="http://www.w3.org/2000/svg" xmlns:xlink="http://www.w3.org/1999/xlink" width="221.89" height="221.883" viewBox="0 0 221.89 221.883">
  <defs>
    <clipPath id="clip-path">
      <rect id="Rectangle_54" data-name="Rectangle 54" width="221.89" height="221.883" fill="#e46226"/>
    </clipPath>
  </defs>
  <g id="Group_98" data-name="Group 98" transform="translate(0)">
    <g id="Group_50" data-name="Group 50" transform="translate(0 0)" clip-path="url(#clip-path)">
      <path id="Path_45" data-name="Path 45" d="M110.948,0A110.941,110.941,0,1,0,221.89,110.941,110.945,110.945,0,0,0,110.948,0M58.564,194.333c-1.625-.143-15.786-11.727-16.61-13.545a2,2,0,0,1-.258-1.632c.179-.687,6.88-8,8.09-9.873,4.016-6.179,5.327-12.837,6.873-19.982,2.491,3.343,7.983,9.758,8.964,13.588,1.052,4.1-.236,9.286,1.06,13.617.208.265.788-.387,1.06-.723,1.554-1.919,8.792-14,9.6-16.173,2.091-5.541-1.138-10.753-3.379-15.8-1.174-2.656-5.255-8.921-5.713-10.8-.652-2.685,1.568-9.644.58-13.059,3.837,5.319,8.584,7.1,15.027,5.727.158,2.728-.2,5.527-.021,8.255.1,1.582,1.146,2.649,1.117,3.988-.158,6.128-4.238,15.493-4.288,22.151L60.139,193.245c-.372.68-.694,1.167-1.575,1.088m52.5,12.958c-.859-4.024-5.584-7.675-5.778-11.827-.229-5.033,5.563-6.637,7.081-10.868l-3.458-15.242c-5.241,5.019-8.09,14-12.55,19.294-1.661,1.976-5.584,2.964-5.964,5.57-.365,2.513,7.167,7.746,8.806,10.266.795,1.224,1.618,1.754.043,2.806-.873.172-4.074-3.3-5.255-4.038-2.355-1.468-4.883-1.6-6.859-3.88-2.907-3.336-2.327-8.083-3.279-12.128l-7.875,14.319L73.856,200.5c9.028-16.509,20.87-32.188,25.759-50.481,2.463,2.728,9.314,8.913,10.553,12,1.489,3.723,2.241,12.651,3.394,17.369,2.291,9.343,4.754,18.7,7.524,27.907Zm38.546-5.835-6.272,2.212c-.5-5.935-8.076-2.807-8.649-8.978-.379-3.995,6.357-9.057,7.847-12.779-2.477-3.658-2.756-14.985-4.611-17.583-.838-1.181-1.138-.4-1.7.465-1.382,2.112-5.477,10.61-5.785,12.844-.687,4.954,2.413,14.8,3.53,20l-1.418.351-8.57-42.627c-1.518-2.878-2.506-6.057-3.931-8.956-1.79-3.651-9.715-14.669-10.274-16.982-.58-2.384,1.317-6.021.58-8.756a17.918,17.918,0,0,0,9.3,1.432c-1.274,3.837-2.062,9.214-1.4,13.2.308,1.811,1.776,2.8,1.919,3.716.165,1.031-.687,2.033-.222,3.845,1.639,6.422,9.021,13.775,6.866,22.187,1.675.358,1.153-.215,1.6-.924,1.31-2.033,4.41-10.811,4.847-11.24,1.274-1.26,1.224.587,1.489,1.024,5.012,8.233,5.455,13.266,8.011,22.036,1.8,6.207,6.1,16.817,6.894,22.48.115.83.344,2.4-.057,3.028M131.818,86.3l-2.857-.723,1.439-6.436c2.5,1.231,1.117,4.947,1.418,7.159M163.7,194.226c-2.943-1.067-4.245-3.372-5.055-6.236-4.525-16.058-2.3-27.9-10.939-44.18-1.167-2.184-6.916-10.41-7.145-11.5-.444-2.1,2.413-7.317,1.3-10.209l6.443,1.425c.422.4-1.332,9.157-1.246,10.9.064,1.31,1.21,6.837,1.561,8.448.981,4.546,7.331,10.732,6.128,16.445l5.677-10.3,1.46-.437,8.577,13.273a106.275,106.275,0,0,0,2.062,24.886Zm17.54-42.061-10.4-22.981,2.585-12.013c4.739-.15,8.763,1.017,13.524-.086-1.5,11.176-2.377,23.418-4.5,34.408-.236,1.2-.193,1.632-1.21.673m3.573,22.91c.165-4.353-.294-8.8.086-13.152.795-9.092,4.4-35.94,7.116-43.715.616-1.761,1.79-2.406,2.463-3.981,1.876-4.417.229-7.052-.48-11.326-3.651-2.606-6.264,3.315-8.942,5.477l-8.842-.6c-.465-4.045.644-9.386,0-13.245a39.287,39.287,0,0,0-3.236-6.794c-1.425-1.969-3.565-1.088-2.484-5.727,9.515,3.458,6.6-3.981,10.045-9.658-3.293-1.167-.666-4.382-2.091-7.131l3.479-2.191c-7.832-7.474-25.566-6.758-22.573,7.56.422,2,1.976,3.752,2.377,5.491.924,4.016-.115,3.544-2.885,5.226-.48.294-.458,1.418-.945,1.418-.716,0-1.661-.773-2.728-.666-5.613.58-8.777,5.856-8.785,11.176,0,2.126,1.561,3.687,1.861,5.642.308,1.983-.351,10.431.115,10.982l8.52,2.921c-2.234.544-9.128,1.768-10.739.387-2.155-7.31,1.561-14.082-3.558-20.8-1.568-2.055-3.873-1.246-2.885-5.355,1.611-.243,5.062.7,6.1-.7.215-.3,2.928-6.458,2.935-6.83.036-1.045-2.191-4.031-1.074-5.992,1.153-.107,4.625-.9,4.21-2.577-5.334-3.945-12.787-10.925-19.688-6.093-4.038,2.835-2.255,5.212-3.573,7.882-.465.967-2.3,1.4-3.136,2.592-1.446,2.048-1.081,5.756-2.169,7.138-1.231,1.582-4.5.408-5.033,2.162l.759,19.867,8.5,3.308-11.448-1.432c-.716-.687.959-15.307-.2-18.772-.866-2.6-6.443-8.863-6.25-10.2.236-1.6,6.443.286,7.875-.372a33.638,33.638,0,0,1,1.475-7.353c.265-.687,1.425-.508,1.425-.888-.021-1.353-2.67-3.537-2.219-6.422.322-2.048,2.864-1.74,2.914-3.558-1.947-8.813-19.953-9.894-22.974-2.234-2.778,7.059,2.935,10.5,2.907,16.875-1.847-1.94-3.716-.544-5.183-.866-.931-.2-1.955-1.489-3.229-1.876-9.579-2.907-17.412,3.866-18.65,13.316-.494,3.752,2.441,3.637,2,4.8l-4.281,3.952c1.482-6.322-3.265-8.677-5.012-13.6,5.949,1.246,4.99-5.62,8.563-7.51-2.95-3.021-.057-6.508-1.418-9.665l2.577-.68c2.606-3.258-7.718-7.553-10.145-7.861C56.136,52.156,52.514,57.819,54.7,67.14c.594,2.527,2.556,4.2,1.954,6.988-1.41-1.239-4.718.072-4.933-.064a9.062,9.062,0,0,0-1.847-2.814,13.405,13.405,0,0,0-21.7,7.7c-.873,4.31,1.489,4.031,1.89,5.692.057.258-.208,5.069-.265,5.327-.394,1.747-2.52,2.212-3.544,3.515-3.888,4.933-5.813,19.13-2.148,24.292,1.031,1.453,2.62,1.869,3.508,2.935.981,1.181,1.282,2.935,2.241,4.2,3.036,4,6.057,4.79,11.054,4.339-.952,3.451,1.067,7.5,1.074,10.381.007,1.661-3.465,18.213-4.138,19.853-1.2,2.935-5.183,5.055-5.541,8.427l-1.482-.444C9.737,135.756,7.5,94.8,26.461,61.477,53.294,14.312,114.686-2,161.4,26.3c51.59,31.251,62.652,103.066,23.411,148.771" fill="#e46226"/>
    </g>
  </g>
</svg>
